<svg width="56" height="56" viewBox="0 0 56 56" xmlns="http://www.w3.org/2000/svg">
<path class="part-light" d="M37.4512 42.21C36.3908 42.1867 35.5379 41.3 35.5379 40.2267C35.5148 39.1533 36.3677 38.269 37.4281 38.2457H37.4512C38.5346 38.2457 39.4105 39.1323 39.4105 40.2267C39.4105 41.3233 38.5346 42.21 37.4512 42.21ZM28.0461 33.6233C26.9857 33.6723 26.1098 32.83 26.0637 31.759C26.0637 30.6857 26.8935 29.799 27.9539 29.75C28.9912 29.75 29.8441 30.569 29.8672 31.6167C29.9133 32.6923 29.0834 33.579 28.0461 33.6233ZM28.0461 42.0933C26.9857 42.1423 26.1098 41.3 26.0637 40.2267C26.0637 39.1533 26.8935 38.269 27.9539 38.22C28.9912 38.22 29.8441 39.039 29.8672 40.089C29.9133 41.1623 29.0834 42.049 28.0461 42.0933ZM18.5719 33.6233C17.5115 33.6723 16.6356 32.83 16.5895 31.759C16.5895 30.6857 17.4193 29.799 18.4797 29.75C19.517 29.75 20.3699 30.569 20.393 31.6167C20.4391 32.6923 19.6092 33.579 18.5719 33.6233ZM18.5488 42.0933C17.4885 42.1423 16.6125 41.3 16.5664 40.2267C16.5664 39.1533 17.3963 38.269 18.4566 38.22C19.494 38.22 20.3469 39.039 20.3699 40.089C20.416 41.1623 19.5862 42.049 18.5488 42.0933ZM35.5609 31.7357C35.5609 30.6623 36.3908 29.799 37.4512 29.7757C38.4885 29.7757 39.3183 30.6133 39.3644 31.6423C39.3875 32.7157 38.5576 33.6023 37.5203 33.6233C36.4599 33.6467 35.584 32.83 35.5609 31.759V31.7357ZM7 21.5997V39.3633C7 46.7367 11.6564 51.3333 18.9638 51.3333H37.0132C44.3897 51.3333 49 46.83 49 39.5057V21.5997H7Z"/>
<path class="part-dark" d="M7.00781 21.5995C7.03778 20.2298 7.15304 17.5115 7.36972 16.6365C8.4762 11.7155 12.2336 8.58879 17.6046 8.14313H38.3972C43.7221 8.61213 47.5256 11.7598 48.6321 16.6365C48.8465 17.4881 48.9617 20.2275 48.9917 21.5995H7.00781Z"/>
<path class="part-light" d="M19.378 15.3767C20.3923 15.3767 21.153 14.609 21.153 13.58V6.46569C21.153 5.43669 20.3923 4.66669 19.378 4.66669C18.3637 4.66669 17.603 5.43669 17.603 6.46569V13.58C17.603 14.609 18.3637 15.3767 19.378 15.3767Z"/>
<path class="part-light" d="M36.6215 15.3767C37.6127 15.3767 38.3965 14.609 38.3965 13.58V6.46569C38.3965 5.43669 37.6127 4.66669 36.6215 4.66669C35.6073 4.66669 34.8466 5.43669 34.8466 6.46569V13.58C34.8466 14.609 35.6073 15.3767 36.6215 15.3767Z"/>
</svg>
