<svg width="56" height="56" viewBox="0 0 56 56" xmlns="http://www.w3.org/2000/svg">
<path class="part-light" d="M28 5.25C15.4547 5.25 5.25 15.4547 5.25 28C5.25 40.5453 15.4547 50.75 28 50.75C40.5453 50.75 50.75 40.5453 50.75 28C50.75 15.4547 40.5453 5.25 28 5.25ZM43.0445 15.7391C45.7516 19.0477 47.3922 23.2586 47.4305 27.8469C46.7906 27.7102 40.3648 26.4086 33.9008 27.2234C33.7641 26.8898 33.6273 26.5562 33.4852 26.2227C33.0805 25.2766 32.6484 24.3305 32.1945 23.4062C39.375 20.4695 42.6344 16.2969 43.0445 15.7391ZM28 8.59687C32.9383 8.59687 37.45 10.4508 40.8789 13.4914C40.5289 13.9891 37.6031 17.9211 30.6961 20.5133C27.5133 14.6617 23.9859 9.86016 23.4445 9.13828C24.9375 8.77734 26.4633 8.59687 28 8.59687ZM19.7367 10.4453C20.2508 11.1453 23.7234 15.9633 26.9391 21.6836C17.85 24.0953 9.84375 24.0625 8.97422 24.0516C10.2375 18.0195 14.3008 13.0102 19.7367 10.4453ZM8.56953 28.0273C8.56953 27.8305 8.575 27.6281 8.58047 27.4312C9.42812 27.4477 18.8453 27.568 28.5523 24.6641C29.1102 25.7523 29.6406 26.857 30.1273 27.9617C29.8703 28.0328 29.6133 28.1094 29.3617 28.1914C19.3375 31.4398 14.0055 40.2719 13.5625 41.0211C10.4617 37.5758 8.56953 33.0203 8.56953 28.0273ZM28 47.4578C23.5047 47.4578 19.3648 45.9266 16.0727 43.3563C16.4227 42.6398 20.3547 35.0438 31.3141 31.2211L31.4398 31.1773C34.1688 38.2648 35.2953 44.2094 35.5852 45.9156C33.188 46.9402 30.607 47.465 28 47.4578ZM38.8555 44.1383C38.6586 42.957 37.625 37.2695 35.082 30.2859C41.1742 29.3125 46.5227 30.9094 47.1844 31.1172C46.3203 36.5203 43.2195 41.1906 38.8555 44.1383Z"/>
</svg>
