<svg width="56" height="56" viewBox="0 0 56 56" xmlns="http://www.w3.org/2000/svg">
<path class="part-light" d="M21.3145 48.4712V41.3365C21.3145 39.5152 22.8017 38.0387 24.6364 38.0387H31.3428C32.2238 38.0387 33.0687 38.3862 33.6917 39.0046C34.3146 39.6231 34.6646 40.4618 34.6646 41.3365V48.4712C34.6591 49.2283 34.9582 49.9564 35.4955 50.4938C36.0329 51.0311 36.7641 51.3334 37.5269 51.3334H42.1023C44.2392 51.3388 46.2904 50.5 47.8034 49.0019C49.3164 47.5038 50.1667 45.4696 50.1667 43.3483V23.0227C50.1667 21.3091 49.4015 19.6837 48.0774 18.5842L32.5127 6.24371C29.8052 4.08 25.9259 4.14986 23.2992 6.40964L8.0897 18.5842C6.70306 19.6512 5.87429 21.2815 5.83334 23.0227V43.3275C5.83334 47.749 9.44389 51.3334 13.8977 51.3334H18.3687C19.9529 51.3334 21.2403 50.0645 21.2518 48.4919L21.3145 48.4712Z"/>
</svg>
