<svg width="137" height="66" viewBox="0 0 137 66" fill="none" xmlns="http://www.w3.org/2000/svg">
<path d="M22.5 42.0938C18.625 45.5521 14 47.2812 8.625 47.2812C5.375 47.2812 3.05208 46.5938 1.65625 45.2188C0.864583 44.4688 0.46875 43.1458 0.46875 41.25C0.46875 38.3333 2.6875 36.4479 7.125 35.5938C8.52083 35.3229 10.1979 35.1875 12.1562 35.1875C14.1146 35.1875 16.7917 35.5521 20.1875 36.2812C22 34.2604 24.1562 31.2917 26.6562 27.375C29.1771 23.4375 31.1667 20.4062 32.625 18.2812C34.0833 16.1562 35.7396 13.9896 37.5938 11.7812C39.4479 9.55208 41.3854 7.54167 43.4062 5.75C47.5104 2.08333 51.5729 0.25 55.5938 0.25C57.3854 0.25 58.6771 0.708333 59.4688 1.625C60.2604 2.52083 60.6562 3.59375 60.6562 4.84375C60.6562 6.07292 60.0833 7.51042 58.9375 9.15625C57.8125 10.8021 56.5 12.2604 55 13.5312C53.5208 14.8021 52.0521 15.8854 50.5938 16.7812C49.1562 17.6562 48.0208 18.0938 47.1875 18.0938C46.3542 18.0938 45.6354 17.7396 45.0312 17.0312C44.4271 16.3229 44.125 15.6458 44.125 15C44.125 14.3333 44.2083 13.875 44.375 13.625C44.5625 13.3542 44.75 13.2188 44.9375 13.2188C45.125 13.2188 45.2396 13.3333 45.2812 13.5625C45.9479 13.3542 47.0104 12.7083 48.4688 11.625C49.9479 10.5208 51.2917 9.375 52.5 8.1875C53.7083 7 54.3125 6.26042 54.3125 5.96875C54.3125 5.65625 54.125 5.5 53.75 5.5C53.3958 5.5 52.9062 5.625 52.2812 5.875C51.6562 6.125 50.8229 6.64583 49.7812 7.4375C48.7396 8.20833 47.6146 9.20833 46.4062 10.4375C43.4896 13.3542 40.2396 17.4896 36.6562 22.8438C35.8229 24.0521 34.6458 25.8125 33.125 28.125C30.0208 32.8125 27.8021 36.0208 26.4688 37.75C37.1562 40.5625 44.7917 41.9688 49.375 41.9688C51.5 41.9688 52.9896 41.6979 53.8438 41.1562C54.1562 40.9688 54.3646 40.875 54.4688 40.875C54.5729 40.875 54.625 40.9583 54.625 41.125C54.625 41.2917 54.5312 41.5417 54.3438 41.875C54.1562 42.2083 53.6875 42.9167 52.9375 44C52.2083 45.0833 51.6667 45.7292 51.3125 45.9375C50.2917 46.5417 48.5521 46.8438 46.0938 46.8438C43.6562 46.8438 41.3229 46.6667 39.0938 46.3125C36.8854 45.9583 35.1042 45.6146 33.75 45.2812C32.3958 44.9271 30.3854 44.3646 27.7188 43.5938C25.0729 42.8229 23.3333 42.3229 22.5 42.0938ZM11.0938 40.1875C8.36458 40.1875 7 40.5104 7 41.1562C7 41.4062 7.22917 41.625 7.6875 41.8125C8.16667 42 8.72917 42.0938 9.375 42.0938C11.3958 42.0938 13.3438 41.5625 15.2188 40.5C13.6146 40.2917 12.2396 40.1875 11.0938 40.1875ZM74.4375 22.1875C75.0625 22.1875 75.6979 22.4688 76.3438 23.0312C77.0104 23.5938 77.3438 24.4583 77.3438 25.625C77.3438 26.7708 76.9375 28.2708 76.125 30.125C75.3125 31.9583 74.1979 33.8333 72.7812 35.75C71.3646 37.6458 69.8021 39.4375 68.0938 41.125C66.4062 42.7917 64.5729 44.1667 62.5938 45.25C60.6354 46.3125 58.8542 46.8438 57.25 46.8438C55.6458 46.8438 54.3542 46.3438 53.375 45.3438C52.4167 44.3229 51.9375 42.9167 51.9375 41.125C51.9375 39.3125 52.375 37.3125 53.25 35.125C54.1458 32.9375 55.2917 31.0104 56.6875 29.3438C58.0833 27.6562 59.5938 26.1458 61.2188 24.8125C64.6146 22.0833 67.5938 20.7188 70.1562 20.7188C71.3021 20.7188 72.1667 21 72.75 21.5625C72.9583 21.75 73.0625 21.9167 73.0625 22.0625V22.25C73.3542 22.2083 73.8125 22.1875 74.4375 22.1875ZM71.2812 26.3438H71.0625C70.3333 26.3438 69.9688 25.8125 69.9688 24.75C68.4479 25.25 66.8542 26.125 65.1875 27.375C63.5208 28.625 62.0312 30.1042 60.7188 31.8125C58.0521 35.2292 56.6979 38.1146 56.6562 40.4688C56.6562 41.6354 57.0833 42.2188 57.9375 42.2188C58.7917 42.2188 60.0625 41.6562 61.75 40.5312C63.4375 39.4062 65.1042 37.8021 66.75 35.7188C68.4167 33.6354 69.6562 31.8333 70.4688 30.3125C71.3021 28.7708 71.7188 27.7292 71.7188 27.1875C71.7188 26.625 71.5729 26.3438 71.2812 26.3438ZM86.375 25.25C88.3958 23.8542 90.375 22.7812 92.3125 22.0312C94.25 21.2812 95.9271 20.9062 97.3438 20.9062C98.7604 20.9062 99.6667 21.3125 100.062 22.125C100.875 21.1875 101.885 20.6875 103.094 20.625C103.448 20.6042 103.885 20.5938 104.406 20.5938C104.927 20.5938 105.25 20.6667 105.375 20.8125C105.5 20.9375 105.615 21.1875 105.719 21.5625C105.823 21.9375 105.885 22.1458 105.906 22.1875C105.927 22.2292 105.938 22.3021 105.938 22.4062C105.938 22.4896 105.885 22.6042 105.781 22.75C105.677 22.875 105.552 23 105.406 23.125C105.281 23.25 105.208 23.3229 105.188 23.3438C100.583 29.9479 95.875 37.4792 91.0625 45.9375C96.0208 41.5417 100.458 38.3854 104.375 36.4688C104.625 36.3438 104.865 36.2812 105.094 36.2812C105.427 36.2812 105.646 36.5 105.75 36.9375C105.854 37.3542 105.906 37.9583 105.906 38.75C105.906 39.5417 105.854 40.0312 105.75 40.2188C105.667 40.4062 105.188 40.7812 104.312 41.3438C103.438 41.9062 102.302 42.6354 100.906 43.5312C99.5104 44.4271 98.0312 45.4167 96.4688 46.5C92.7188 49.1042 89.6354 51.8438 87.2188 54.7188C84.0938 58.4896 81.8542 61.5312 80.5 63.8438C80 64.7396 79.1562 65.1875 77.9688 65.1875C75.6146 65.1875 74.4375 64.0729 74.4375 61.8438C74.4375 59.5729 75.5521 57.25 77.7812 54.875C79.4479 53.1042 80.9792 51.6562 82.375 50.5312C83.7708 49.4062 84.5312 48.7708 84.6562 48.625C86.1979 46.3125 88.2917 43.0312 90.9375 38.7812C88.6875 41.1354 86.5 43.0104 84.375 44.4062C82.2708 45.8021 80.6979 46.5 79.6562 46.5C76.4688 46.5 74.875 45.1354 74.875 42.4062C74.875 40.2396 75.4271 38.0521 76.5312 35.8438C77.6354 33.6354 79.0521 31.6667 80.7812 29.9375C82.5104 28.1875 84.375 26.625 86.375 25.25ZM98.2812 24.4375C95.8646 24.9583 93.5938 25.8229 91.4688 27.0312C89.3438 28.2188 87.5938 29.5 86.2188 30.875C84.8438 32.2292 83.6562 33.625 82.6562 35.0625C80.7812 37.75 79.8438 39.8333 79.8438 41.3125C79.8438 41.6667 79.9271 41.8438 80.0938 41.8438C80.2812 41.8438 80.6771 41.6562 81.2812 41.2812C81.9062 40.9062 82.7812 40.2708 83.9062 39.375C85.0312 38.4583 86.2812 37.375 87.6562 36.125C90.8438 33.1875 94.3854 29.2917 98.2812 24.4375ZM124.688 22.1875C125.312 22.1875 125.948 22.4688 126.594 23.0312C127.26 23.5938 127.594 24.4583 127.594 25.625C127.594 26.7708 127.188 28.2708 126.375 30.125C125.562 31.9583 124.448 33.8333 123.031 35.75C121.615 37.6458 120.052 39.4375 118.344 41.125C116.656 42.7917 114.823 44.1667 112.844 45.25C110.885 46.3125 109.104 46.8438 107.5 46.8438C105.896 46.8438 104.604 46.3438 103.625 45.3438C102.667 44.3229 102.188 42.9167 102.188 41.125C102.188 39.3125 102.625 37.3125 103.5 35.125C104.396 32.9375 105.542 31.0104 106.938 29.3438C108.333 27.6562 109.844 26.1458 111.469 24.8125C114.865 22.0833 117.844 20.7188 120.406 20.7188C121.552 20.7188 122.417 21 123 21.5625C123.208 21.75 123.312 21.9167 123.312 22.0625V22.25C123.604 22.2083 124.062 22.1875 124.688 22.1875ZM121.531 26.3438H121.312C120.583 26.3438 120.219 25.8125 120.219 24.75C118.698 25.25 117.104 26.125 115.438 27.375C113.771 28.625 112.281 30.1042 110.969 31.8125C108.302 35.2292 106.948 38.1146 106.906 40.4688C106.906 41.6354 107.333 42.2188 108.188 42.2188C109.042 42.2188 110.312 41.6562 112 40.5312C113.688 39.4062 115.354 37.8021 117 35.7188C118.667 33.6354 119.906 31.8333 120.719 30.3125C121.552 28.7708 121.969 27.7292 121.969 27.1875C121.969 26.625 121.823 26.3438 121.531 26.3438Z" fill="#188AEC"/>
<path d="M129.656 45.6875C129.656 44.4167 130.156 43.2917 131.156 42.3125C132.156 41.3125 133.135 40.8125 134.094 40.8125C135.823 40.8125 136.688 41.5208 136.688 42.9375C136.688 44.1042 136.198 45.2292 135.219 46.3125C134.24 47.4167 133.135 47.9688 131.906 47.9688C130.406 47.9688 129.656 47.2083 129.656 45.6875Z" fill="#EC4899"/>
</svg>
