<svg width="56" height="56" viewBox="0 0 56 56" xmlns="http://www.w3.org/2000/svg">
<path class="part-dark" d="M51.3331 37.1938C51.3331 43.7038 46.1064 48.9772 39.5964 49.0005H39.5731H16.4498C9.96311 49.0005 4.66644 43.7505 4.66644 37.2405V37.2172C4.66644 37.2172 4.68044 26.8898 4.69911 21.6958C4.70144 20.7205 5.82144 20.1745 6.58444 20.7812C12.1284 25.1795 22.0428 33.1992 22.1664 33.3042C23.8231 34.6318 25.9231 35.3808 28.0698 35.3808C30.2164 35.3808 32.3164 34.6318 33.9731 33.2785C34.0968 33.1968 43.7894 25.4175 49.4174 20.9468C50.1828 20.3378 51.3074 20.8838 51.3098 21.8568C51.3331 27.0112 51.3331 37.1938 51.3331 37.1938Z"/>
<path class="part-light" d="M50.1107 13.2384C48.09 9.43042 44.114 6.99908 39.7367 6.99908H16.45C12.0727 6.99908 8.09668 9.43042 6.07601 13.2384C5.62335 14.0901 5.83801 15.1518 6.59168 15.7538L23.9167 29.6114C25.13 30.5914 26.6 31.0791 28.07 31.0791C28.0793 31.0791 28.0863 31.0791 28.0933 31.0791C28.1003 31.0791 28.1097 31.0791 28.1167 31.0791C29.5867 31.0791 31.0567 30.5914 32.27 29.6114L49.595 15.7538C50.3487 15.1518 50.5634 14.0901 50.1107 13.2384Z"/>
</svg>
